<?xml version="1.0" encoding="UTF-8" standalone="no"?>
<svg
   xmlns:dc="http://purl.org/dc/elements/1.1/"
   xmlns:cc="http://creativecommons.org/ns#"
   xmlns:rdf="http://www.w3.org/1999/02/22-rdf-syntax-ns#"
   xmlns:svg="http://www.w3.org/2000/svg"
   xmlns="http://www.w3.org/2000/svg"
   xmlns:sodipodi="http://sodipodi.sourceforge.net/DTD/sodipodi-0.dtd"
   xmlns:inkscape="http://www.inkscape.org/namespaces/inkscape"
   viewBox="0 0 315.84699 315.98227"
   version="1.1"
   id="svg34"
   sodipodi:docname="logo-square.svg"
   width="315.84698"
   height="315.98227"
   inkscape:version="1.0.2 (e86c870879, 2021-01-15)">
  <metadata
     id="metadata38">
    <rdf:RDF>
      <cc:Work
         rdf:about="">
        <dc:format>image/svg+xml</dc:format>
        <dc:type
           rdf:resource="http://purl.org/dc/dcmitype/StillImage" />
        <dc:title></dc:title>
      </cc:Work>
    </rdf:RDF>
  </metadata>
  <sodipodi:namedview
     pagecolor="#ffffff"
     bordercolor="#666666"
     borderopacity="1"
     objecttolerance="10"
     gridtolerance="10"
     guidetolerance="10"
     inkscape:pageopacity="0"
     inkscape:pageshadow="2"
     inkscape:window-width="1480"
     inkscape:window-height="804"
     id="namedview36"
     showgrid="false"
     fit-margin-top="0"
     fit-margin-left="40"
     fit-margin-right="40"
     fit-margin-bottom="0"
     inkscape:zoom="1.0341973"
     inkscape:cx="135.75758"
     inkscape:cy="176.935"
     inkscape:window-x="0"
     inkscape:window-y="0"
     inkscape:window-maximized="0"
     inkscape:current-layer="svg34" />
  <defs
     id="defs2">
    <inkscape:perspective
       sodipodi:type="inkscape:persp3d"
       inkscape:vp_x="0 : 157.99114 : 1"
       inkscape:vp_y="0 : 1000 : 0"
       inkscape:vp_z="315.98228 : 157.99114 : 1"
       inkscape:persp3d-origin="157.99114 : 105.32742 : 1"
       id="perspective863" />
  </defs>
  <g
     fill-rule="evenodd"
     id="g14"
     transform="translate(-16.565,-120.703)">
    <path
       fill="#6e7071"
       d="m 128.447,270.473 c 4.005,-39.033 27.825,-65.876 63.347,-80.019 l -20.558,-69.751 -21.228,8.389 9.203,38.51 c -14.883,10.989 -27.701,23.061 -38.453,36.214 -16.607,-7.916 -29.195,-13.418 -37.765,-16.503 -5.424,2.883 -11.248,12.612 -17.477,29.182 5.624,6.506 17.142,15.295 34.552,26.366 -4.553,13.75 -5.892,30.052 -4.016,48.904 -10.582,3.568 -23.744,9.448 -39.487,17.642 2.295,13.465 6.214,24.358 11.752,32.683 7.496,-0.269 19.99,-2.975 37.484,-8.122 11.076,16.579 23.234,30.045 36.471,40.398 -7.632,12.788 -13.238,24.63 -16.817,35.524 5.875,8.797 16.48,14.886 31.811,18.269 4.996,-6.901 12.696,-18.674 23.098,-35.322 11.817,4.196 28.637,5.684 50.452,4.466 4.254,10.695 10.266,23.82 18.033,39.381 7.968,0.069 14.318,-2.707 19.047,-8.322 -7.159,-24.496 -14.319,-46.826 -21.479,-66.99 -45.182,9.473 -78.614,-0.542 -100.294,-30.044 -13.204,-16.53 -19.098,-36.817 -17.675,-60.856 z"
       id="path4" />
    <g
       fill="#009733"
       id="g12">
      <path
         d="m 292.412,235.381 h -53.471 v 35.578 h 49.463 v 10.847 H 238.941 V 327.35 H 222.91 V 224.484 h 69.502 z"
         id="path6" />
      <path
         d="m 237.803,271.044 h 50.593 v 11.978 h -50.593 z m -3.755,-46.56 h 58.364 v 11.978 h -58.364 z m -43.695,0 h 12.105 v 102.861 h -12.105 z"
         id="path8" />
      <path
         d="m 183.754,224.484 h 24.611 v 7.575 h -24.611 z m 0,95.286 h 24.611 v 7.575 h -24.611 z"
         id="path10" />
    </g>
  </g>
  <path
     fill="none"
     stroke="#ffffff"
     stroke-width="0.216"
     d="m -15.840255,-11.104 v 335.57 H 733.90074 v -335.57 z"
     id="path30" />
</svg>
