<?xml version="1.0" encoding="UTF-8" standalone="no"?>
<svg
   xmlns:dc="http://purl.org/dc/elements/1.1/"
   xmlns:cc="http://creativecommons.org/ns#"
   xmlns:rdf="http://www.w3.org/1999/02/22-rdf-syntax-ns#"
   xmlns:svg="http://www.w3.org/2000/svg"
   xmlns="http://www.w3.org/2000/svg"
   xmlns:sodipodi="http://sodipodi.sourceforge.net/DTD/sodipodi-0.dtd"
   xmlns:inkscape="http://www.inkscape.org/namespaces/inkscape"
   viewBox="0 0 749.95696 335.78601"
   version="1.1"
   id="svg34"
   sodipodi:docname="logo.svg"
   width="749.95697"
   height="335.78601"
   inkscape:version="1.0.2 (e86c870879, 2021-01-15)">
  <metadata
     id="metadata38">
    <rdf:RDF>
      <cc:Work
         rdf:about="">
        <dc:format>image/svg+xml</dc:format>
        <dc:type
           rdf:resource="http://purl.org/dc/dcmitype/StillImage" />
        <dc:title></dc:title>
      </cc:Work>
    </rdf:RDF>
  </metadata>
  <sodipodi:namedview
     pagecolor="#ffffff"
     bordercolor="#666666"
     borderopacity="1"
     objecttolerance="10"
     gridtolerance="10"
     guidetolerance="10"
     inkscape:pageopacity="0"
     inkscape:pageshadow="2"
     inkscape:window-width="761"
     inkscape:window-height="480"
     id="namedview36"
     showgrid="false"
     fit-margin-top="0"
     fit-margin-left="0"
     fit-margin-right="0"
     fit-margin-bottom="0"
     inkscape:zoom="0.50232441"
     inkscape:cx="381.17401"
     inkscape:cy="188.147"
     inkscape:window-x="0"
     inkscape:window-y="0"
     inkscape:window-maximized="0"
     inkscape:current-layer="svg34" />
  <defs
     id="defs2" />
  <g
     fill-rule="evenodd"
     id="g14"
     transform="translate(-39.771,-109.491)">
    <path
       fill="#6e7071"
       d="m 128.447,270.473 c 4.005,-39.033 27.825,-65.876 63.347,-80.019 l -20.558,-69.751 -21.228,8.389 9.203,38.51 c -14.883,10.989 -27.701,23.061 -38.453,36.214 -16.607,-7.916 -29.195,-13.418 -37.765,-16.503 -5.424,2.883 -11.248,12.612 -17.477,29.182 5.624,6.506 17.142,15.295 34.552,26.366 -4.553,13.75 -5.892,30.052 -4.016,48.904 -10.582,3.568 -23.744,9.448 -39.487,17.642 2.295,13.465 6.214,24.358 11.752,32.683 7.496,-0.269 19.99,-2.975 37.484,-8.122 11.076,16.579 23.234,30.045 36.471,40.398 -7.632,12.788 -13.238,24.63 -16.817,35.524 5.875,8.797 16.48,14.886 31.811,18.269 4.996,-6.901 12.696,-18.674 23.098,-35.322 11.817,4.196 28.637,5.684 50.452,4.466 4.254,10.695 10.266,23.82 18.033,39.381 7.968,0.069 14.318,-2.707 19.047,-8.322 -7.159,-24.496 -14.319,-46.826 -21.479,-66.99 -45.182,9.473 -78.614,-0.542 -100.294,-30.044 -13.204,-16.53 -19.098,-36.817 -17.675,-60.856 z"
       id="path4" />
    <g
       fill="#009733"
       id="g12">
      <path
         d="m 292.412,235.381 h -53.471 v 35.578 h 49.463 v 10.847 H 238.941 V 327.35 H 222.91 V 224.484 h 69.502 z"
         id="path6" />
      <path
         d="m 237.803,271.044 h 50.593 v 11.978 h -50.593 z m -3.755,-46.56 h 58.364 v 11.978 h -58.364 z m -43.695,0 h 12.105 v 102.861 h -12.105 z"
         id="path8" />
      <path
         d="m 183.754,224.484 h 24.611 v 7.575 h -24.611 z m 0,95.286 h 24.611 v 7.575 h -24.611 z"
         id="path10" />
    </g>
  </g>
  <g
     fill-rule="evenodd"
     id="g28"
     transform="translate(-39.771,-109.491)">
    <path
       fill="#91137c"
       stroke="#91137c"
       stroke-width="0.073"
       d="M 529.435,327.35 H 515.104 L 503.401,298.506 H 456.539 L 445.521,327.35 H 431.11 L 473.5,224.484 h 13.413 l 20.839,50.411 h -13.666 l -12.274,-31.042 c -0.553,-1.445 -1.131,-3.747 -1.684,-6.881 h -0.317 c -0.526,2.915 -1.103,5.192 -1.762,6.881 l -17.198,43.83 h 38.289 l -0.113,-0.286 h 13.891 z"
       id="path16" />
    <g
       fill="#f49325"
       id="g22">
      <path
         d="m 532.706,224.484 v 70.272 h 13.792 l 65.609,-70.272 h -17.904 l -48.523,51.59 v -51.59 z m 0,80.21 v 22.656 h 12.974 v -22.656 z"
         id="path18" />
      <path
         d="m 565.428,274.481 45.849,52.868 h -14.782 l -39.789,-44.711 z"
         id="path20" />
    </g>
    <path
       fill="#6d91c6"
       d="m 615.108,224.484 v 52.34 h 58.327 v -12.212 h -43.092 v -24.855 h 58.471 v -15.273 z m 73.706,102.314 v -11.247 h -58.37 v -23.107 h -15.408 v 34.905 h 73.78 z"
       id="path24" />
    <path
       fill="#9edbf4"
       d="m 692.044,267.444 v -42.959 h 50.365 c 35.238,5.712 38.727,53.599 3.633,64.339 l 25.285,38.526 H 753.391 L 727.96,289.707 h -20.745 v 37.643 h -15.25 v -50.522 h 47.287 c 11.978,-3.509 17.627,-9.963 16.948,-19.357 -0.112,-10.246 -6.44,-18.422 -14.575,-18.849 h -34.278 v 29.066 z"
       id="path26" />
  </g>
  <path
     fill="none"
     stroke="#ffffff"
     stroke-width="0.216"
     d="m 0.108,0.108 v 335.57 H 749.849 V 0.108 Z"
     id="path30" />
  <path
     fill="#cc1d66"
     d="m 283.4,166.42 v -51.438 l 16.659,0.017 1.97,4.522 8.557,19.72 12.253,28.057 12.497,29.182 c 0.361,0.888 0.869,0.088 2.413,-3.799 1.633,-4.109 8.839,-20.374 31.833,-71.851 l 2.481,-5.553 15.966,-0.326 v 102.908 h -12.924 l 0.178,-41.515 -0.233,-40.478 c -1.412,3.562 -14.535,33.561 -20.655,47.214 l -14.882,34.248 c 0,0.348 -1.484,0.516 -3.653,0.413 l -3.653,-0.175 -11.293,-25.427 A 24746.027,24746.027 0 0 1 302.655,150.93 l -6.966,-15.782 -0.016,82.709 h -12.275 z"
     id="path32" />
</svg>
