<svg xmlns="http://www.w3.org/2000/svg" viewBox="0 0 714.762 315.982"><defs/><g fill-rule="evenodd"><path fill="#6e7071" d="M71.882 149.77c4.005-39.033 27.825-65.876 63.347-80.019L114.671 0 93.443 8.389l9.203 38.51C87.763 57.888 74.945 69.96 64.193 83.113 47.586 75.197 34.998 69.695 26.428 66.61 21.004 69.493 15.18 79.222 8.951 95.792c5.624 6.506 17.142 15.295 34.552 26.366-4.553 13.75-5.892 30.052-4.016 48.904C28.905 174.63 15.743 180.51 0 188.704c2.295 13.465 6.214 24.358 11.752 32.683 7.496-.269 19.99-2.975 37.484-8.122 11.076 16.579 23.234 30.045 36.471 40.398-7.632 12.788-13.238 24.63-16.817 35.524 5.875 8.797 16.48 14.886 31.811 18.269 4.996-6.901 12.696-18.674 23.098-35.322 11.817 4.196 28.637 5.684 50.452 4.466 4.254 10.695 10.266 23.82 18.033 39.381 7.968.069 14.318-2.707 19.047-8.322-7.159-24.496-14.319-46.826-21.479-66.99-45.182 9.473-78.614-.542-100.294-30.044-13.204-16.53-19.098-36.817-17.675-60.856z"/><g fill="#009733"><path d="M235.847 114.678h-53.471v35.578h49.463v10.847h-49.463v45.544h-16.031V103.781h69.502z"/><path d="M181.238 150.341h50.593v11.978h-50.593zm-3.755-46.56h58.364v11.978h-58.364zm-43.695 0h12.105v102.861h-12.105z"/><path d="M127.189 103.781H151.8v7.575h-24.611zm0 95.286H151.8v7.575h-24.611z"/></g></g><g fill-rule="evenodd"><path fill="#91137c" stroke="#91137c" stroke-width=".073" d="M472.87 206.647h-14.331l-11.703-28.844h-46.862l-11.018 28.844h-14.411l42.39-102.866h13.413l20.839 50.411h-13.666l-12.274-31.042c-.553-1.445-1.131-3.747-1.684-6.881h-.317c-.526 2.915-1.103 5.192-1.762 6.881l-17.198 43.83h38.289l-.113-.286h13.891z"/><g fill="#f49325"><path d="M476.141 103.781v70.272h13.792l65.609-70.272h-17.904l-48.523 51.59v-51.59zm0 80.21v22.656h12.974v-22.656z"/><path d="M508.863 153.778l45.849 52.868H539.93l-39.789-44.711z"/></g><path fill="#6d91c6" d="M558.543 103.781v52.34h58.327v-12.212h-43.092v-24.855h58.471v-15.273zm73.706 102.314v-11.247h-58.37v-23.107h-15.408v34.905h73.78z"/><path fill="#9edbf4" d="M635.479 146.741v-42.959h50.365c35.238 5.712 38.727 53.599 3.633 64.339l25.285 38.526h-17.936l-25.431-37.643H650.65v37.643H635.4v-50.522h47.287c11.978-3.509 17.627-9.963 16.948-19.357-.112-10.246-6.44-18.422-14.575-18.849h-34.278v29.066z"/></g><path fill="#cc1d66" d="M266.606 155.208V103.77l16.659.017 1.97 4.522 8.557 19.72 12.253 28.057 12.497 29.182c.361.888.869.088 2.413-3.799 1.633-4.109 8.839-20.374 31.833-71.851l2.481-5.553 15.966-.326v102.908h-12.924l.178-41.515-.233-40.478c-1.412 3.562-14.535 33.561-20.655 47.214l-14.882 34.248c0 .348-1.484.516-3.653.413l-3.653-.175-11.293-25.427a24746.027 24746.027 0 01-18.259-41.209l-6.966-15.782-.016 82.709h-12.275z"/></svg>