<?xml version="1.0" encoding="UTF-8" standalone="no"?>
<svg
   xmlns:dc="http://purl.org/dc/elements/1.1/"
   xmlns:cc="http://creativecommons.org/ns#"
   xmlns:rdf="http://www.w3.org/1999/02/22-rdf-syntax-ns#"
   xmlns:svg="http://www.w3.org/2000/svg"
   xmlns="http://www.w3.org/2000/svg"
   xmlns:sodipodi="http://sodipodi.sourceforge.net/DTD/sodipodi-0.dtd"
   xmlns:inkscape="http://www.inkscape.org/namespaces/inkscape"
   viewBox="0 0 330.00001 330"
   version="1.1"
   id="svg34"
   sodipodi:docname="logo-square-loading.svg"
   width="330"
   height="330"
   inkscape:version="1.0.2 (e86c870879, 2021-01-15)">
  <metadata
     id="metadata38">
    <rdf:RDF>
      <cc:Work
         rdf:about="">
        <dc:format>image/svg+xml</dc:format>
        <dc:type
           rdf:resource="http://purl.org/dc/dcmitype/StillImage" />
        <dc:title></dc:title>
      </cc:Work>
    </rdf:RDF>
  </metadata>
  <sodipodi:namedview
     pagecolor="#ffffff"
     bordercolor="#666666"
     borderopacity="1"
     objecttolerance="10"
     gridtolerance="10"
     guidetolerance="10"
     inkscape:pageopacity="0"
     inkscape:pageshadow="2"
     inkscape:window-width="1480"
     inkscape:window-height="804"
     id="namedview36"
     showgrid="false"
     fit-margin-top="0"
     fit-margin-left="0"
     fit-margin-right="0"
     fit-margin-bottom="0"
     inkscape:zoom="0.38337718"
     inkscape:cx="-126.75922"
     inkscape:cy="149.77372"
     inkscape:window-x="0"
     inkscape:window-y="0"
     inkscape:window-maximized="0"
     inkscape:current-layer="svg34"
     inkscape:document-rotation="0" />
  <defs
     id="defs2">
    <inkscape:perspective
       sodipodi:type="inkscape:persp3d"
       inkscape:vp_x="0 : 172.00887 : 1"
       inkscape:vp_y="0 : 1000 : 0"
       inkscape:vp_z="315.98228 : 172.00887 : 1"
       inkscape:persp3d-origin="157.99114 : 119.34515 : 1"
       id="perspective863" />
  </defs>
  <g
     fill-rule="evenodd"
     id="g14"
     transform="matrix(1.0084555,0,0,1.0149476,-51.450484,-133.04999)"
     style="stroke-width:0.988439">
    <g
       fill="#009733"
       id="g12"
       transform="translate(-17.942312,19.736338)"
       style="stroke-width:0.984286">
      <path
         d="m 292.412,235.381 h -53.471 v 35.578 h 49.463 v 10.847 H 238.941 V 327.35 H 222.91 V 224.484 h 69.502 z"
         id="path6"
         style="stroke-width:0.988439" />
      <path
         d="m 237.803,271.044 h 50.593 v 11.978 h -50.593 z m -3.755,-46.56 h 58.364 v 11.978 h -58.364 z m -43.695,0 h 12.105 v 102.861 h -12.105 z"
         id="path8"
         style="stroke-width:0.988439" />
      <path
         d="m 183.754,224.484 h 24.611 v 7.575 h -24.611 z m 0,95.286 h 24.611 v 7.575 h -24.611 z"
         id="path10"
         style="stroke-width:0.988439" />
    </g>
    <g
       id="g872"
       style="stroke-width:0.988439">
      <path
         fill="#6e7071"
         class="logoIfmakersdSquareEngrenagem"
         d="m 132.60019,260.50192 c 15.79053,-35.92038 46.69893,-54.15798 84.84716,-56.71721 l 1.83983,-72.69421 -22.77814,1.46955 -3.05938,39.47601 c -17.53723,5.8913 -33.44147,13.44707 -47.71114,22.66571 -13.37631,-12.63052 -23.66837,-21.73015 -30.87808,-27.29632 -6.04702,1.07932 -14.57571,8.55153 -25.589285,22.41033 3.355996,7.918 11.620955,19.81764 24.793265,35.69735 -8.55302,11.68923 -14.830307,26.79366 -18.830304,45.31169 -11.166349,0.14832 -25.497728,1.70531 -42.995703,4.67256 -1.948005,13.51956 -1.561057,25.08962 1.154858,34.71245 7.216836,2.04442 19.938383,3.30327 38.167774,3.77335 5.453618,19.17809 12.892375,35.72545 22.313405,49.64116 -11.18822,9.82874 -20.157884,19.37889 -26.907429,28.64885 2.891801,10.17547 11.116413,19.22521 24.669419,27.14988 6.87276,-5.03478 17.8142,-13.87663 32.82334,-26.52903 9.95907,7.62003 25.51078,14.1981 46.64689,19.73366 0.76655,11.48442 2.46052,25.8211 5.07723,43.01481 7.63933,0.93962 12.27283,0.2928 16.86829,-0.0554 0.70401,-25.51097 -0.1361,-50.98052 -0.76248,-72.36883 -0.2016,-0.0213 -0.40278,-0.0429 -0.60353,-0.0648 -45.5164,-4.95933 -69.40952,-24.72934 -80.93867,-59.30857 -7.49397,-19.78451 -6.8777,-40.90137 1.85393,-63.34367 z"
         id="path4"
         sodipodi:nodetypes="cccccccccccccccccccccsccc"
         style="stroke-width:0.984286" />
      <path
         fill="#6e7071"
         class="logoIfmakersdSquareEngrenagem"
         d="M 296.67111,260.50192 C 280.88058,224.58154 249.9722,206.34394 211.82399,203.78471 l -1.83983,-72.69421 22.77813,1.46955 3.05938,39.47601 c 17.53722,5.8913 33.44145,13.44707 47.71111,22.66571 13.37631,-12.63052 23.66836,-21.73015 30.87807,-27.29632 6.04701,1.07932 14.5757,8.55153 25.58928,22.41033 -3.356,7.918 -11.62096,19.81764 -24.79327,35.69735 8.55302,11.68923 14.83031,26.79366 18.8303,45.31169 11.16634,0.14832 25.49771,1.70531 42.99569,4.67256 1.94799,13.51956 1.56104,25.08962 -1.15487,34.71245 -7.21683,2.04442 -19.93836,3.30327 -38.16775,3.77335 -5.45361,19.17809 -12.89237,35.72545 -22.31339,49.64116 11.18821,9.82874 20.15787,19.37889 26.90741,28.64885 -2.8918,10.17547 -11.1164,19.22521 -24.6694,27.14988 -6.87276,-5.03478 -17.8142,-13.87663 -32.82332,-26.52903 -9.95907,7.62003 -25.51077,14.1981 -46.64687,19.73366 -0.76656,11.48442 -2.46052,25.8211 -5.07723,43.01481 -7.56233,0.71556 -29.73483,0.8494 -36.90353,0 -0.70402,-25.51097 15.47938,-51.03592 16.10581,-72.42423 45.90888,-4.84998 74.65412,-24.64162 86.23411,-59.37337 7.49397,-19.78451 6.8777,-40.90137 -1.85393,-63.34367 z"
         id="path4-3"
         style="stroke-width:0.988439"
         sodipodi:nodetypes="cccccccccccccccccccccccc" />
    </g>
  </g>
</svg>
