<?xml version="1.0" standalone="no"?>
<!DOCTYPE svg PUBLIC "-//W3C//DTD SVG 20010904//EN"
 "http://www.w3.org/TR/2001/REC-SVG-20010904/DTD/svg10.dtd">
<svg version="1.0" xmlns="http://www.w3.org/2000/svg"
 width="512.000000pt" height="512.000000pt" viewBox="0 0 512.000000 512.000000"
 preserveAspectRatio="xMidYMid meet">
<metadata>
Created by potrace 1.11, written by Peter Selinger 2001-2013
</metadata>
<g transform="translate(0.000000,512.000000) scale(0.100000,-0.100000)"
fill="#000000" stroke="none">
<path d="M2350 5059 c-80 -32 -155 -63 -166 -68 l-22 -9 39 -159 c22 -87 41
-167 43 -178 3 -11 12 -51 21 -90 9 -38 18 -77 20 -85 2 -8 9 -37 15 -63 12
-45 11 -49 -9 -63 -143 -101 -410 -346 -532 -490 -35 -40 -67 -74 -71 -74 -5
0 -81 33 -171 74 -166 76 -384 169 -425 181 -49 14 -150 -123 -239 -325 -28
-63 -52 -122 -55 -129 -10 -32 235 -232 459 -376 74 -48 92 -64 89 -80 -2 -11
-16 -72 -29 -135 -38 -171 -47 -328 -34 -598 l2 -43 -87 -34 c-175 -68 -530
-235 -543 -255 -7 -12 34 -188 66 -281 26 -76 92 -210 114 -232 11 -11 27 -14
53 -11 20 3 46 7 57 8 96 14 214 41 398 91 53 14 101 24 105 21 5 -3 22 -24
38 -48 28 -42 111 -151 177 -233 44 -55 271 -282 329 -329 32 -26 45 -43 39
-50 -56 -69 -261 -509 -261 -561 0 -20 93 -114 155 -156 28 -18 88 -50 135
-70 83 -35 217 -76 224 -68 15 18 172 257 260 394 59 94 109 171 110 172 1 1
33 -7 71 -17 71 -19 149 -34 240 -46 28 -4 151 -8 275 -10 124 -1 228 -3 231
-3 4 -1 12 -16 19 -34 34 -88 145 -334 215 -472 l60 -120 59 2 c104 4 255 93
243 145 -26 120 -333 1068 -346 1068 -3 0 -24 -5 -46 -10 -22 -5 -62 -12 -90
-15 -27 -4 -61 -8 -75 -11 -93 -16 -334 -23 -444 -13 -268 26 -512 117 -697
260 -148 115 -308 306 -401 479 -77 143 -123 295 -148 490 -9 70 -6 326 4 375
4 17 11 55 17 85 6 30 12 65 15 77 11 56 81 236 121 313 72 136 140 227 258
345 124 124 124 124 243 204 93 63 197 120 301 164 38 17 61 32 58 40 -2 6
-64 215 -136 462 -73 248 -140 477 -150 510 -10 33 -24 79 -31 103 -7 23 -16
42 -19 41 -3 -1 -71 -28 -151 -60z"/>
<path d="M2710 3379 c0 -32 5 -60 10 -60 6 -1 29 -2 53 -3 l42 -1 1 -707 c0
-390 -2 -709 -5 -709 -3 -1 -26 -2 -51 -3 l-45 -1 -3 -63 -3 -62 201 0 200 0
0 60 c0 41 -4 60 -12 61 -7 1 -24 3 -38 4 -14 1 -30 3 -36 4 -15 2 -15 1410 0
1412 6 1 27 2 46 3 l35 1 0 60 0 60 -197 2 -198 2 0 -60z"/>
<path d="M3345 2607 l0 -832 130 0 130 0 0 358 0 357 403 0 403 0 -3 98 -3 97
-380 2 c-209 1 -389 2 -400 2 -20 1 -20 8 -21 274 0 149 3 274 7 277 4 3 199
5 433 5 l426 -1 0 98 0 98 -563 0 -562 -1 0 -832z"/>
</g>
</svg>
