<?xml version="1.0" encoding="UTF-8" standalone="no"?>
<svg
   xmlns:dc="http://purl.org/dc/elements/1.1/"
   xmlns:cc="http://creativecommons.org/ns#"
   xmlns:rdf="http://www.w3.org/1999/02/22-rdf-syntax-ns#"
   xmlns:svg="http://www.w3.org/2000/svg"
   xmlns="http://www.w3.org/2000/svg"
   xmlns:sodipodi="http://sodipodi.sourceforge.net/DTD/sodipodi-0.dtd"
   xmlns:inkscape="http://www.inkscape.org/namespaces/inkscape"
   width="108.20372"
   height="108.20372"
   preserveAspectRatio="xMidYMid meet"
   viewBox="0 0 108.20372 108.20372"
   version="1.1"
   id="svg45"
   sodipodi:docname="augmented-reality-circle.svg"
   inkscape:version="1.0.2 (e86c870879, 2021-01-15)">
  <metadata
     id="metadata51">
    <rdf:RDF>
      <cc:Work
         rdf:about="">
        <dc:format>image/svg+xml</dc:format>
        <dc:type
           rdf:resource="http://purl.org/dc/dcmitype/StillImage" />
        <dc:title></dc:title>
      </cc:Work>
    </rdf:RDF>
  </metadata>
  <defs
     id="defs49" />
  <sodipodi:namedview
     pagecolor="#ffffff"
     bordercolor="#666666"
     borderopacity="1"
     objecttolerance="10"
     gridtolerance="10"
     guidetolerance="10"
     inkscape:pageopacity="0"
     inkscape:pageshadow="2"
     inkscape:window-width="1726"
     inkscape:window-height="922"
     id="namedview47"
     showgrid="false"
     fit-margin-top="0"
     fit-margin-left="0"
     fit-margin-right="0"
     fit-margin-bottom="0"
     inkscape:zoom="1.7946317"
     inkscape:cx="-83.893206"
     inkscape:cy="37.924474"
     inkscape:window-x="0"
     inkscape:window-y="0"
     inkscape:window-maximized="0"
     inkscape:current-layer="svg45" />
  <g
     fill="none"
     stroke="#fff"
     stroke-linecap="round"
     stroke-linejoin="round"
     stroke-miterlimit="10"
     stroke-width="2"
     id="g36"
     transform="translate(18.318521,17.416393)">
    <path
       d="M 6.808,55.158 22.07,33.412 30.66,42.002 46.643,26.021 65.72,55.875 H 6.28 Z"
       id="path4" />
    <path
       d="M 38,17.021 H 60.021 A 7.979,7.979 0 0 1 68,25 V 49.235 H 4 V 25 a 7.979,7.979 0 0 1 7.979,-7.979 H 33.917 L 36,21.625 Z"
       id="path6" />
    <path
       d="m 8.208,24.125 v -3 H 11"
       id="path8" />
    <path
       d="m 15.52,21.125 h 3 v 2.792"
       id="path10" />
    <path
       d="m 18.52,28.438 v 3 h -2.79"
       id="path12" />
    <path
       d="m 11.208,31.438 h -3 v -2.792"
       id="path14" />
    <circle
       cx="13.229"
       cy="26.146"
       r="2.0209999"
       id="circle16" />
    <path
       d="M 62.837,26.021 H 40.642"
       id="path18" />
    <path
       d="M 67.859,26.021 H 62.837"
       id="path20" />
    <path
       d="M 67.859,29.238 H 62.837"
       id="path22" />
    <path
       d="M 67.859,32.456 H 62.837"
       id="path24" />
    <path
       d="M 67.859,35.673 H 62.837"
       id="path26" />
    <path
       d="M 67.859,38.891 H 62.837"
       id="path28" />
    <path
       d="M 67.859,42.108 H 62.837"
       id="path30" />
    <path
       d="M 67.859,45.325 H 62.837"
       id="path32" />
    <path
       d="M 46.571,49.235 V 20.06"
       id="path34" />
  </g>
  <g
     id="g41"
     transform="matrix(0.53101862,0,0,0.53101862,-1.6550948,-1.6550948)"
     style="stroke-width:1.88318">
    <title
       id="title38">Layer 1</title>
    <circle
       r="100"
       cy="105"
       cx="105"
       stroke-width="2"
       stroke="#fff"
       fill="none"
       id="imagebot_2" />
  </g>
</svg>
