<svg xmlns="http://www.w3.org/2000/svg" xmlns:xlink="http://www.w3.org/1999/xlink" width="72" height="72" preserveAspectRatio="xMidYMid meet" viewBox="0 0 72 72" style="-ms-transform: rotate(360deg); -webkit-transform: rotate(360deg); transform: rotate(360deg);"><path fill="#9B9B9A" d="M6.808 55.158L22.07 33.412l8.59 8.59l15.983-15.981l19.077 29.854H6.28z"/><g fill="none" stroke="#000" stroke-linecap="round" stroke-linejoin="round" stroke-miterlimit="10" stroke-width="2"><path d="M6.808 55.158L22.07 33.412l8.59 8.59l15.983-15.981l19.077 29.854H6.28z"/><path d="M38 17.021h22.021A7.979 7.979 0 0 1 68 25v24.235H4V25a7.979 7.979 0 0 1 7.979-7.979h21.938L36 21.625l2-4.604z"/><path d="M8.208 24.125v-3H11"/><path d="M15.52 21.125h3v2.792"/><path d="M18.52 28.438v3h-2.79"/><path d="M11.208 31.438h-3v-2.792"/><circle cx="13.229" cy="26.146" r="2.021"/><path d="M62.837 26.021H40.642"/><path d="M67.859 26.021h-5.022"/><path d="M67.859 29.238h-5.022"/><path d="M67.859 32.456h-5.022"/><path d="M67.859 35.673h-5.022"/><path d="M67.859 38.891h-5.022"/><path d="M67.859 42.108h-5.022"/><path d="M67.859 45.325h-5.022"/><path d="M46.571 49.235V20.06"/></g><rect x="0" y="0" width="72" height="72" fill="rgba(0, 0, 0, 0)" /></svg>