<?xml version="1.0" encoding="UTF-8" standalone="no"?>
<svg
   xmlns:dc="http://purl.org/dc/elements/1.1/"
   xmlns:cc="http://creativecommons.org/ns#"
   xmlns:rdf="http://www.w3.org/1999/02/22-rdf-syntax-ns#"
   xmlns:svg="http://www.w3.org/2000/svg"
   xmlns="http://www.w3.org/2000/svg"
   xmlns:sodipodi="http://sodipodi.sourceforge.net/DTD/sodipodi-0.dtd"
   xmlns:inkscape="http://www.inkscape.org/namespaces/inkscape"
   width="107.26576"
   height="107.26576"
   preserveAspectRatio="xMidYMid meet"
   viewBox="0 0 107.26576 107.26576"
   version="1.1"
   id="svg11"
   sodipodi:docname="bar-chart-circle.svg"
   inkscape:version="1.0.2 (e86c870879, 2021-01-15)">
  <metadata
     id="metadata17">
    <rdf:RDF>
      <cc:Work
         rdf:about="">
        <dc:format>image/svg+xml</dc:format>
        <dc:type
           rdf:resource="http://purl.org/dc/dcmitype/StillImage" />
        <dc:title></dc:title>
      </cc:Work>
    </rdf:RDF>
  </metadata>
  <defs
     id="defs15" />
  <sodipodi:namedview
     pagecolor="#ffffff"
     bordercolor="#666666"
     borderopacity="1"
     objecttolerance="10"
     gridtolerance="10"
     guidetolerance="10"
     inkscape:pageopacity="0"
     inkscape:pageshadow="2"
     inkscape:window-width="1920"
     inkscape:window-height="1019"
     id="namedview13"
     showgrid="false"
     fit-margin-top="0"
     fit-margin-left="0"
     fit-margin-right="0"
     fit-margin-bottom="0"
     inkscape:zoom="3.2255069"
     inkscape:cx="-73.015981"
     inkscape:cy="-22.025359"
     inkscape:window-x="0"
     inkscape:window-y="0"
     inkscape:window-maximized="1"
     inkscape:current-layer="svg11" />
  <g
     fill="#fff"
     id="g4"
     transform="matrix(4.3540232,0,0,4.3540232,18.217122,17.029896)"
     style="stroke-width:0.229673">
    <path
       d="M 4,11 H 2 v 3 H 4 Z M 9,7 H 7 v 7 H 9 Z M 14,2 V 14 H 12 V 2 Z M 12,1 a 1,1 0 0 0 -1,1 v 12 a 1,1 0 0 0 1,1 h 2 a 1,1 0 0 0 1,-1 V 2 A 1,1 0 0 0 14,1 Z M 6,7 A 1,1 0 0 1 7,6 h 2 a 1,1 0 0 1 1,1 v 7 A 1,1 0 0 1 9,15 H 7 A 1,1 0 0 1 6,14 Z m -5,4 a 1,1 0 0 1 1,-1 h 2 a 1,1 0 0 1 1,1 v 3 A 1,1 0 0 1 4,15 H 2 A 1,1 0 0 1 1,14 Z"
       id="path2"
       style="stroke-width:0.229673" />
  </g>
  <g
     id="g41"
     transform="matrix(0.53101862,0,0,0.53101862,-2.1240745,-2.1240745)"
     style="stroke-width:1.88318">
    <title
       id="title38">Layer 1</title>
    <circle
       r="100"
       cy="105"
       cx="105"
       stroke-width="2"
       stroke="#fff"
       fill="none"
       id="imagebot_2" />
  </g>
</svg>
