<?xml version="1.0" encoding="UTF-8" standalone="no"?>
<svg
   xmlns:dc="http://purl.org/dc/elements/1.1/"
   xmlns:cc="http://creativecommons.org/ns#"
   xmlns:rdf="http://www.w3.org/1999/02/22-rdf-syntax-ns#"
   xmlns:svg="http://www.w3.org/2000/svg"
   xmlns="http://www.w3.org/2000/svg"
   xmlns:sodipodi="http://sodipodi.sourceforge.net/DTD/sodipodi-0.dtd"
   xmlns:inkscape="http://www.inkscape.org/namespaces/inkscape"
   width="107.26576"
   height="107.26576"
   preserveAspectRatio="xMidYMid meet"
   viewBox="0 0 107.26576 107.26576"
   version="1.1"
   id="svg9"
   sodipodi:docname="baseline-precision-manufacturing-circle.svg"
   inkscape:version="1.0.2 (e86c870879, 2021-01-15)">
  <metadata
     id="metadata15">
    <rdf:RDF>
      <cc:Work
         rdf:about="">
        <dc:format>image/svg+xml</dc:format>
        <dc:type
           rdf:resource="http://purl.org/dc/dcmitype/StillImage" />
        <dc:title></dc:title>
      </cc:Work>
    </rdf:RDF>
  </metadata>
  <defs
     id="defs13" />
  <sodipodi:namedview
     pagecolor="#ffffff"
     bordercolor="#666666"
     borderopacity="1"
     objecttolerance="10"
     gridtolerance="10"
     guidetolerance="10"
     inkscape:pageopacity="0"
     inkscape:pageshadow="2"
     inkscape:window-width="1920"
     inkscape:window-height="1019"
     id="namedview11"
     showgrid="false"
     fit-margin-top="0"
     fit-margin-left="0"
     fit-margin-right="0"
     fit-margin-bottom="0"
     inkscape:zoom="3.0410371"
     inkscape:cx="-78.816917"
     inkscape:cy="5.4348101"
     inkscape:window-x="0"
     inkscape:window-y="0"
     inkscape:window-maximized="1"
     inkscape:current-layer="svg9" />
  <path
     d="m 83.120411,38.666711 -13.22321,6.17083 -8.558354,-8.044119 v -5.142358 l 8.558354,-8.04412 13.22321,6.170831 c 1.395783,0.661161 3.011953,0.03673 3.673114,-1.322321 0.66116,-1.395783 0.03673,-3.011953 -1.322321,-3.673113 L 71.072599,18.060543 a 3.6474018,3.6474018 0 0 0 -4.150619,0.734623 l -6.391218,5.876981 a 3.5812858,3.5812858 0 0 0 -2.865029,-1.469245 c -2.020212,0 -3.673114,1.652901 -3.673114,3.673114 v 3.673113 H 42.312118 c -1.763095,-4.958703 -6.758529,-8.337968 -12.562049,-7.08911 -4.260811,0.918279 -7.897194,4.591393 -8.668548,8.925667 -0.808085,4.84851 1.689633,9.07259 5.436208,11.31319 L 35.9209,74.626493 H 24.607711 v 11.01934 H 72.358188 V 74.626493 H 59.061516 L 40.806142,40.723654 c 0.624429,-0.881547 1.138665,-1.799826 1.505976,-2.828298 h 11.680501 v 3.673114 c 0,2.020213 1.652902,3.673114 3.673114,3.673114 1.175396,0 2.203869,-0.587699 2.865029,-1.469246 l 6.391218,5.876982 c 1.101933,1.101934 2.754835,1.395783 4.150619,0.734623 l 14.398605,-6.721798 c 1.395783,-0.66116 1.983481,-2.277331 1.322321,-3.673114 a 2.7658546,2.7658546 0 0 0 -3.673114,-1.32232 z M 31.953938,37.895356 c -2.020212,0 -3.673114,-1.652901 -3.673114,-3.673114 0,-2.020212 1.652902,-3.673113 3.673114,-3.673113 2.020212,0 3.673113,1.652901 3.673113,3.673113 0,2.020213 -1.652901,3.673114 -3.673113,3.673114 z"
     fill="#fff"
     id="path2"
     style="stroke-width:1" />
  <g
     id="g41"
     transform="matrix(0.53101862,0,0,0.53101862,-2.1240745,-2.1240745)"
     style="stroke-width:1.88318">
    <title
       id="title38">Layer 1</title>
    <circle
       r="100"
       cy="105"
       cx="105"
       stroke-width="2"
       stroke="#fff"
       fill="none"
       id="imagebot_2" />
  </g>
</svg>
