<svg xmlns="http://www.w3.org/2000/svg" xmlns:xlink="http://www.w3.org/1999/xlink" width="24" height="24" preserveAspectRatio="xMidYMid meet" viewBox="0 0 24 24" style="-ms-transform: rotate(360deg); -webkit-transform: rotate(360deg); transform: rotate(360deg);"><path d="M13 19v-4h3l-4-5l-4 5h3v4z" fill="#626262"/><path d="M7 19h2v-2H7c-1.654 0-3-1.346-3-3c0-1.404 1.199-2.756 2.673-3.015l.581-.102l.192-.558C8.149 8.274 9.895 7 12 7c2.757 0 5 2.243 5 5v1h1c1.103 0 2 .897 2 2s-.897 2-2 2h-3v2h3c2.206 0 4-1.794 4-4a4.01 4.01 0 0 0-3.056-3.888C18.507 7.67 15.56 5 12 5C9.244 5 6.85 6.611 5.757 9.15C3.609 9.792 2 11.82 2 14c0 2.757 2.243 5 5 5z" fill="#626262"/><rect x="0" y="0" width="24" height="24" fill="rgba(0, 0, 0, 0)" /></svg>