<?xml version="1.0" encoding="UTF-8" standalone="no"?>
<svg
   xmlns:dc="http://purl.org/dc/elements/1.1/"
   xmlns:cc="http://creativecommons.org/ns#"
   xmlns:rdf="http://www.w3.org/1999/02/22-rdf-syntax-ns#"
   xmlns:svg="http://www.w3.org/2000/svg"
   xmlns="http://www.w3.org/2000/svg"
   xmlns:sodipodi="http://sodipodi.sourceforge.net/DTD/sodipodi-0.dtd"
   xmlns:inkscape="http://www.inkscape.org/namespaces/inkscape"
   width="107.26576"
   height="107.26576"
   preserveAspectRatio="xMidYMid meet"
   viewBox="0 0 107.26576 107.26576"
   version="1.1"
   id="svg11"
   sodipodi:docname="bx-cloud-upload-circle.svg"
   inkscape:version="1.0.2 (e86c870879, 2021-01-15)">
  <metadata
     id="metadata17">
    <rdf:RDF>
      <cc:Work
         rdf:about="">
        <dc:format>image/svg+xml</dc:format>
        <dc:type
           rdf:resource="http://purl.org/dc/dcmitype/StillImage" />
        <dc:title></dc:title>
      </cc:Work>
    </rdf:RDF>
  </metadata>
  <defs
     id="defs15" />
  <sodipodi:namedview
     pagecolor="#ffffff"
     bordercolor="#666666"
     borderopacity="1"
     objecttolerance="10"
     gridtolerance="10"
     guidetolerance="10"
     inkscape:pageopacity="0"
     inkscape:pageshadow="2"
     inkscape:window-width="1920"
     inkscape:window-height="1019"
     id="namedview13"
     showgrid="false"
     fit-margin-top="0"
     fit-margin-left="0"
     fit-margin-right="0"
     fit-margin-bottom="0"
     inkscape:zoom="3.0410371"
     inkscape:cx="-83.951902"
     inkscape:cy="17.792933"
     inkscape:window-x="0"
     inkscape:window-y="0"
     inkscape:window-maximized="1"
     inkscape:current-layer="svg11" />
  <path
     d="M 57.280418,77.271499 V 61.818088 H 68.870477 L 53.417065,42.501323 37.963654,61.818088 h 11.590058 v 15.453411 z"
     fill="#fff"
     id="path2"
     style="stroke-width:1" />
  <path
     d="m 34.100301,77.271499 h 7.726705 v -7.726706 h -7.726705 c -6.389986,0 -11.590059,-5.200073 -11.590059,-11.590058 0,-5.424148 4.63216,-10.647401 10.326742,-11.648009 l 2.244608,-0.394062 0.741764,-2.155751 c 2.715937,-7.923737 9.461351,-12.845649 17.593709,-12.845649 10.651264,0 19.316765,8.665501 19.316765,19.316765 v 3.863353 h 3.863353 c 4.261278,0 7.726705,3.465427 7.726705,7.726706 0,4.261278 -3.465427,7.726705 -7.726705,7.726705 H 65.007124 v 7.726706 h 11.590059 c 8.522556,0 15.453411,-6.930855 15.453411,-15.453411 A 15.492045,15.492045 0 0 0 80.244188,46.797372 C 78.555902,33.499711 67.170601,23.184559 53.417065,23.184559 c -10.6474,0 -19.896267,6.223861 -24.118912,16.032914 -8.298482,2.480273 -14.514617,10.315152 -14.514617,18.737262 0,10.651264 8.665501,19.316764 19.316765,19.316764 z"
     fill="#fff"
     id="path4"
     style="stroke-width:1" />
  <g
     id="g41"
     transform="matrix(0.53101862,0,0,0.53101862,-2.1240745,-2.1240745)"
     style="stroke-width:1.88318">
    <title
       id="title38">Layer 1</title>
    <circle
       r="100"
       cy="105"
       cx="105"
       stroke-width="2"
       stroke="#fff"
       fill="none"
       id="imagebot_2" />
  </g>
</svg>
