<?xml version="1.0" encoding="UTF-8" standalone="no"?>
<svg
   xmlns:dc="http://purl.org/dc/elements/1.1/"
   xmlns:cc="http://creativecommons.org/ns#"
   xmlns:rdf="http://www.w3.org/1999/02/22-rdf-syntax-ns#"
   xmlns:svg="http://www.w3.org/2000/svg"
   xmlns="http://www.w3.org/2000/svg"
   xmlns:sodipodi="http://sodipodi.sourceforge.net/DTD/sodipodi-0.dtd"
   xmlns:inkscape="http://www.inkscape.org/namespaces/inkscape"
   width="107.26576"
   height="107.26576"
   preserveAspectRatio="xMidYMid meet"
   viewBox="0 0 107.26576 107.26576"
   version="1.1"
   id="svg9"
   sodipodi:docname="bx-data-circle.svg"
   inkscape:version="1.0.2 (e86c870879, 2021-01-15)">
  <metadata
     id="metadata15">
    <rdf:RDF>
      <cc:Work
         rdf:about="">
        <dc:format>image/svg+xml</dc:format>
        <dc:type
           rdf:resource="http://purl.org/dc/dcmitype/StillImage" />
        <dc:title></dc:title>
      </cc:Work>
    </rdf:RDF>
  </metadata>
  <defs
     id="defs13" />
  <sodipodi:namedview
     pagecolor="#ffffff"
     bordercolor="#666666"
     borderopacity="1"
     objecttolerance="10"
     gridtolerance="10"
     guidetolerance="10"
     inkscape:pageopacity="0"
     inkscape:pageshadow="2"
     inkscape:window-width="1920"
     inkscape:window-height="1019"
     id="namedview11"
     showgrid="false"
     fit-margin-top="0"
     fit-margin-left="0"
     fit-margin-right="0"
     fit-margin-bottom="0"
     inkscape:zoom="6.0820741"
     inkscape:cx="9.3021368"
     inkscape:cy="35.016949"
     inkscape:window-x="0"
     inkscape:window-y="0"
     inkscape:window-maximized="1"
     inkscape:current-layer="svg9" />
  <path
     d="M 84.743453,72.80908 V 33.902643 c 0,-8.434916 -14.251428,-15.562575 -31.12515,-15.562575 -16.873721,0 -31.125149,7.127659 -31.125149,15.562575 V 72.80908 c 0,8.434915 14.251428,15.562574 31.125149,15.562574 16.873722,0 31.12515,-7.127659 31.12515,-15.562574 z M 53.618303,26.121355 c 14.360366,0 23.075408,5.8632 23.343863,7.757944 -0.268455,1.941431 -8.983497,7.804631 -23.343863,7.804631 -14.360365,0 -23.075407,-5.8632 -23.343862,-7.757944 0.268455,-1.941431 8.983497,-7.804631 23.343862,-7.804631 z M 30.274441,44.045551 c 5.754262,3.295375 14.150271,5.419666 23.343862,5.419666 9.193592,0 17.589601,-2.124291 23.343863,-5.419666 v 9.286966 c -0.268455,1.941431 -8.983497,7.804631 -23.343863,7.804631 -14.360365,0 -23.075407,-5.8632 -23.343862,-7.781287 z m 0,28.763529 v -9.310311 c 5.754262,3.295375 14.150271,5.419667 23.343862,5.419667 9.193592,0 17.589601,-2.124292 23.343863,-5.419667 v 9.286967 c -0.268455,1.941431 -8.983497,7.804631 -23.343863,7.804631 -14.360365,0 -23.075407,-5.8632 -23.343862,-7.781287 z"
     fill="#fff"
     id="path2"
     style="stroke-width:1" />
  <g
     id="g41"
     transform="matrix(0.53101862,0,0,0.53101862,-2.1240745,-2.1240745)"
     style="stroke-width:1.88318">
    <title
       id="title38">Layer 1</title>
    <circle
       r="100"
       cy="105"
       cx="105"
       stroke-width="2"
       stroke="#fff"
       fill="none"
       id="imagebot_2" />
  </g>
</svg>
