<svg xmlns="http://www.w3.org/2000/svg" xmlns:xlink="http://www.w3.org/1999/xlink" width="24" height="24" preserveAspectRatio="xMidYMid meet" viewBox="0 0 24 24" style="-ms-transform: rotate(360deg); -webkit-transform: rotate(360deg); transform: rotate(360deg);"><path d="M7.999 22h8c1.103 0 2-.897 2-2V4c0-1.103-.897-2-2-2h-8c-1.103 0-2 .897-2 2v16c0 1.103.897 2 2 2zm-5-15h2V5h-2v.5h-1v1h1zm18-2h-2v2h2v-.5h1v-1h-1zm-18 6h2V9h-2v.5h-1v1h1zm18-2h-2v2h2v-.5h1v-1h-1zm-18 6h2v-2h-2v.5h-1v1h1zm18-2h-2v2h2v-.5h1v-1h-1zm-18 6h2v-2h-2v.5h-1v1h1zm18-2h-2v2h2v-.5h1v-1h-1z" fill="#626262"/><rect x="0" y="0" width="24" height="24" fill="rgba(0, 0, 0, 0)" /></svg>