<?xml version="1.0" encoding="UTF-8" standalone="no"?>
<svg
   xmlns:dc="http://purl.org/dc/elements/1.1/"
   xmlns:cc="http://creativecommons.org/ns#"
   xmlns:rdf="http://www.w3.org/1999/02/22-rdf-syntax-ns#"
   xmlns:svg="http://www.w3.org/2000/svg"
   xmlns="http://www.w3.org/2000/svg"
   xmlns:sodipodi="http://sodipodi.sourceforge.net/DTD/sodipodi-0.dtd"
   xmlns:inkscape="http://www.inkscape.org/namespaces/inkscape"
   width="107.26576"
   height="107.26576"
   preserveAspectRatio="xMidYMid meet"
   viewBox="0 0 107.26576 107.26576"
   version="1.1"
   id="svg9"
   sodipodi:docname="bxs-microchip-circle.svg"
   inkscape:version="1.0.2 (e86c870879, 2021-01-15)">
  <metadata
     id="metadata15">
    <rdf:RDF>
      <cc:Work
         rdf:about="">
        <dc:format>image/svg+xml</dc:format>
        <dc:type
           rdf:resource="http://purl.org/dc/dcmitype/StillImage" />
        <dc:title></dc:title>
      </cc:Work>
    </rdf:RDF>
  </metadata>
  <defs
     id="defs13" />
  <sodipodi:namedview
     pagecolor="#ffffff"
     bordercolor="#666666"
     borderopacity="1"
     objecttolerance="10"
     gridtolerance="10"
     guidetolerance="10"
     inkscape:pageopacity="0"
     inkscape:pageshadow="2"
     inkscape:window-width="1920"
     inkscape:window-height="1019"
     id="namedview11"
     showgrid="false"
     fit-margin-top="0"
     fit-margin-left="0"
     fit-margin-right="0"
     fit-margin-bottom="0"
     inkscape:zoom="4.3006758"
     inkscape:cx="-27.945545"
     inkscape:cy="11.967415"
     inkscape:window-x="0"
     inkscape:window-y="0"
     inkscape:window-maximized="1"
     inkscape:current-layer="svg9" />
  <path
     d="m 40.768541,87.263572 h 26.69187 c 3.680142,0 6.672967,-2.992826 6.672967,-6.672967 V 27.206866 c 0,-3.680142 -2.992825,-6.672968 -6.672967,-6.672968 h -26.69187 c -3.680141,0 -6.672967,2.992826 -6.672967,6.672968 v 53.383739 c 0,3.680141 2.992826,6.672967 6.672967,6.672967 z M 24.086123,37.216317 h 6.672967 v -6.672968 h -6.672967 v 1.668242 h -3.336484 v 3.336484 h 3.336484 z m 60.056706,-6.672968 h -6.672967 v 6.672968 h 6.672967 v -1.668242 h 3.336484 V 32.211591 H 84.142829 Z M 24.086123,50.562252 h 6.672967 v -6.672968 h -6.672967 v 1.668242 h -3.336484 v 3.336484 h 3.336484 z m 60.056706,-6.672968 h -6.672967 v 6.672968 h 6.672967 V 48.89401 h 3.336484 V 45.557526 H 84.142829 Z M 24.086123,63.908186 h 6.672967 v -6.672967 h -6.672967 v 1.668242 h -3.336484 v 3.336484 h 3.336484 z m 60.056706,-6.672967 h -6.672967 v 6.672967 h 6.672967 v -1.668241 h 3.336484 V 58.903461 H 84.142829 Z M 24.086123,77.254121 h 6.672967 v -6.672967 h -6.672967 v 1.668242 h -3.336484 v 3.336483 h 3.336484 z m 60.056706,-6.672967 h -6.672967 v 6.672967 h 6.672967 v -1.668242 h 3.336484 v -3.336483 h -3.336484 z"
     fill="#fff"
     id="path2"
     style="stroke-width:1" />
  <g
     id="g41"
     transform="matrix(0.53101862,0,0,0.53101862,-2.1240745,-2.1240745)"
     style="stroke-width:1.88318">
    <title
       id="title38">Layer 1</title>
    <circle
       r="100"
       cy="105"
       cx="105"
       stroke-width="2"
       stroke="#fff"
       fill="none"
       id="imagebot_2" />
  </g>
</svg>
