<svg xmlns="http://www.w3.org/2000/svg" xmlns:xlink="http://www.w3.org/1999/xlink" width="36" height="36" preserveAspectRatio="xMidYMid meet" viewBox="0 0 36 36" style="-ms-transform: rotate(360deg); -webkit-transform: rotate(360deg); transform: rotate(360deg);"><path class="clr-i-outline clr-i-outline-path-1" d="M18.09 20.59A2.41 2.41 0 0 0 17 25.14V28h2v-2.77a2.41 2.41 0 0 0-.91-4.64z" fill="#626262"/><path class="clr-i-outline clr-i-outline-path-2" d="M26 15v-4.28a8.2 8.2 0 0 0-8-8.36a8.2 8.2 0 0 0-8 8.36V15H7v17a2 2 0 0 0 2 2h18a2 2 0 0 0 2-2V15zm-14-4.28a6.2 6.2 0 0 1 6-6.36a6.2 6.2 0 0 1 6 6.36V15H12zM9 32V17h18v15z" fill="#626262"/><rect x="0" y="0" width="36" height="36" fill="rgba(0, 0, 0, 0)" /></svg>